solid OpenSCAD_Model
  facet normal -1 0 0
    outer loop
      vertex -6.35 2.8 0.9
      vertex -6.35 2.8 3.9
      vertex -6.35 3.5999999999999996 0.9
    endloop
  endfacet
  facet normal 0 1 0
    outer loop
      vertex -6.35 3.5999999999999996 0.9
      vertex -6.35 3.5999999999999996 3.9
      vertex -5.35 3.5999999999999996 3.150000000000051
    endloop
  endfacet
  facet normal 0 -1 0
    outer loop
      vertex -6.35 2.8 0.9
      vertex -5.949999999999999 2.8 4.3
      vertex -6.35 2.8 3.9
    endloop
  endfacet
  facet normal -1 0 0
    outer loop
      vertex -6.35 3.5999999999999996 0.9
      vertex -6.35 2.8 3.9
      vertex -6.35 3.5999999999999996 3.9
    endloop
  endfacet
  facet normal 0 1 0
    outer loop
      vertex -6.35 3.5999999999999996 0.9
      vertex -5.35 3.5999999999999996 3.150000000000051
      vertex 5.35 3.5999999999999996 3.1500000000000514
    endloop
  endfacet
  facet normal 0 -1 0
    outer loop
      vertex -6.35 2.8 0.9
      vertex 6.35 2.8 3.9
      vertex -5.949999999999999 2.8 4.3
    endloop
  endfacet
  facet normal 0 1 0
    outer loop
      vertex -6.35 3.5999999999999996 3.9
      vertex -5.35 3.5999999999999996 3.9
      vertex -5.35 3.5999999999999996 3.150000000000051
    endloop
  endfacet
  facet normal -0.7071067811865471 0 0.7071067811865479
    outer loop
      vertex -6.35 2.8 3.9
      vertex -5.949999999999999 2.8 4.3
      vertex -6.35 3.5999999999999996 3.9
    endloop
  endfacet
  facet normal -0.7071067811865471 0 0.7071067811865479
    outer loop
      vertex -5.949999999999999 2.8 4.3
      vertex -5.949999999999999 3.1999999999999997 4.3
      vertex -6.35 3.5999999999999996 3.9
    endloop
  endfacet
  facet normal 0 0.7071067811865476 0.7071067811865476
    outer loop
      vertex -6.35 3.5999999999999996 3.9
      vertex -5.35 3.5934210526315793 3.9065789473684203
      vertex -5.35 3.5999999999999996 3.9
    endloop
  endfacet
  facet normal 0 0 1
    outer loop
      vertex -5.949999999999999 2.8 4.3
      vertex 5.949999999999999 3.1999999999999997 4.3
      vertex -5.949999999999999 3.1999999999999997 4.3
    endloop
  endfacet
  facet normal -5.0582875602062403e-20 0.7071067811865475 0.7071067811865476
    outer loop
      vertex -6.35 3.5999999999999996 3.9
      vertex 5.949999999999999 3.1999999999999997 4.3
      vertex -5.35 3.5934210526315793 3.9065789473684203
    endloop
  endfacet
  facet normal 0 0.7071067811865476 0.7071067811865476
    outer loop
      vertex -5.949999999999999 3.1999999999999997 4.3
      vertex 5.949999999999999 3.1999999999999997 4.3
      vertex -6.35 3.5999999999999996 3.9
    endloop
  endfacet
  facet normal 0 1 0
    outer loop
      vertex -6.35 3.5999999999999996 0.9
      vertex 5.35 3.5999999999999996 3.1500000000000514
      vertex 6.35 3.5999999999999996 0.9
    endloop
  endfacet
  facet normal 0 -1 0
    outer loop
      vertex -6.35 2.8 0.9
      vertex 6.35 2.8 0.9
      vertex 6.35 2.8 3.9
    endloop
  endfacet
  facet normal 1 0 0
    outer loop
      vertex 6.35 2.8 0.9
      vertex 6.35 3.5999999999999996 0.9
      vertex 6.35 3.5999999999999996 3.9
    endloop
  endfacet
  facet normal 0 -1 0
    outer loop
      vertex -5.949999999999999 2.8 4.3
      vertex 6.35 2.8 3.9
      vertex 5.949999999999999 2.8 4.3
    endloop
  endfacet
  facet normal 0 0 1
    outer loop
      vertex -5.949999999999999 2.8 4.3
      vertex 5.949999999999999 2.8 4.3
      vertex 5.949999999999999 3.1999999999999997 4.3
    endloop
  endfacet
  facet normal -2.1893117540192248e-18 0.7071067811865475 0.7071067811865476
    outer loop
      vertex 5.949999999999999 3.1999999999999997 4.3
      vertex 5.35 3.5934210526315793 3.9065789473684203
      vertex -5.35 3.5934210526315793 3.9065789473684203
    endloop
  endfacet
  facet normal 0 1 0
    outer loop
      vertex 6.35 3.5999999999999996 0.9
      vertex 5.35 3.5999999999999996 3.1500000000000514
      vertex 6.35 3.5999999999999996 3.9
    endloop
  endfacet
  facet normal 1 0 0
    outer loop
      vertex 6.35 2.8 0.9
      vertex 6.35 3.5999999999999996 3.9
      vertex 6.35 2.8 3.9
    endloop
  endfacet
  facet normal 0 1 0
    outer loop
      vertex 6.35 3.5999999999999996 3.9
      vertex 5.35 3.5999999999999996 3.1500000000000514
      vertex 5.35 3.5999999999999996 3.9
    endloop
  endfacet
  facet normal 0.7071067811865471 0 0.7071067811865479
    outer loop
      vertex 6.35 2.8 3.9
      vertex 6.35 3.5999999999999996 3.9
      vertex 5.949999999999999 2.8 4.3
    endloop
  endfacet
  facet normal 0.7071067811865471 0 0.7071067811865479
    outer loop
      vertex 5.949999999999999 2.8 4.3
      vertex 6.35 3.5999999999999996 3.9
      vertex 5.949999999999999 3.1999999999999997 4.3
    endloop
  endfacet
  facet normal 1.2874758161208447e-15 0.7071067811865481 0.7071067811865468
    outer loop
      vertex 5.949999999999999 3.1999999999999997 4.3
      vertex 5.35 3.5999999999999996 3.9
      vertex 5.35 3.5934210526315793 3.9065789473684203
    endloop
  endfacet
  facet normal -1.570092458683777e-17 0.7071067811865475 0.7071067811865475
    outer loop
      vertex 5.949999999999999 3.1999999999999997 4.3
      vertex 6.35 3.5999999999999996 3.9
      vertex 5.35 3.5999999999999996 3.9
    endloop
  endfacet
  facet normal -1 0 0
    outer loop
      vertex -6.35 -3.5999999999999996 0.9
      vertex -6.35 -2.8 3.9
      vertex -6.35 -2.8 0.9
    endloop
  endfacet
  facet normal 0 -1 -1.9737298215558337e-16
    outer loop
      vertex -6.35 -3.5999999999999996 0.9
      vertex 6.35 -3.5999999999999996 0.9
      vertex -5.35 -3.6 3.15
    endloop
  endfacet
  facet normal -4.440892098500626e-16 -1 0
    outer loop
      vertex -6.35 -3.5999999999999996 0.9
      vertex -5.35 -3.6 3.15
      vertex -6.35 -3.5999999999999996 3.9
    endloop
  endfacet
  facet normal -1 0 0
    outer loop
      vertex -6.35 -3.5999999999999996 0.9
      vertex -6.35 -3.5999999999999996 3.9
      vertex -6.35 -2.8 3.9
    endloop
  endfacet
  facet normal 0 1 0
    outer loop
      vertex -6.35 -2.8 0.9
      vertex -6.35 -2.8 3.9
      vertex -5.949999999999999 -2.8 4.3
    endloop
  endfacet
  facet normal 0 1 0
    outer loop
      vertex -6.35 -2.8 0.9
      vertex -5.949999999999999 -2.8 4.3
      vertex 6.35 -2.8 3.9
    endloop
  endfacet
  facet normal 0 -1 5.921189464667501e-16
    outer loop
      vertex -6.35 -3.5999999999999996 3.9
      vertex -5.35 -3.6 3.15
      vertex -5.35 -3.5999999999999996 3.9
    endloop
  endfacet
  facet normal 0 -0.7071067811865476 0.7071067811865476
    outer loop
      vertex -6.35 -3.5999999999999996 3.9
      vertex -5.35 -3.5999999999999996 3.9
      vertex -5.35 -3.5934210526315793 3.9065789473684203
    endloop
  endfacet
  facet normal -0.7071067811865471 0 0.7071067811865479
    outer loop
      vertex -6.35 -3.5999999999999996 3.9
      vertex -5.949999999999999 -2.8 4.3
      vertex -6.35 -2.8 3.9
    endloop
  endfacet
  facet normal -0.7071067811865471 -3.434577253370772e-17 0.7071067811865479
    outer loop
      vertex -6.35 -3.5999999999999996 3.9
      vertex -5.949999999999999 -3.1999999999999997 4.3
      vertex -5.949999999999999 -2.8 4.3
    endloop
  endfacet
  facet normal 5.0582875602062403e-20 -0.7071067811865476 0.7071067811865475
    outer loop
      vertex -6.35 -3.5999999999999996 3.9
      vertex -5.35 -3.5934210526315793 3.9065789473684203
      vertex 5.949999999999999 -3.1999999999999997 4.3
    endloop
  endfacet
  facet normal 1.319405427465359e-18 -0.7071067811865476 0.7071067811865476
    outer loop
      vertex -6.35 -3.5999999999999996 3.9
      vertex 5.949999999999999 -3.1999999999999997 4.3
      vertex -5.949999999999999 -3.1999999999999997 4.3
    endloop
  endfacet
  facet normal 0 0 1
    outer loop
      vertex -5.949999999999999 -3.1999999999999997 4.3
      vertex 5.949999999999999 -3.1999999999999997 4.3
      vertex -5.949999999999999 -2.8 4.3
    endloop
  endfacet
  facet normal 0 1 0
    outer loop
      vertex -6.35 -2.8 0.9
      vertex 6.35 -2.8 3.9
      vertex 6.35 -2.8 0.9
    endloop
  endfacet
  facet normal 1 0 0
    outer loop
      vertex 6.35 -3.5999999999999996 0.9
      vertex 6.35 -2.8 0.9
      vertex 6.35 -3.5999999999999996 3.9
    endloop
  endfacet
  facet normal 0 -1 -1.9737298215558337e-16
    outer loop
      vertex 6.35 -3.5999999999999996 0.9
      vertex 5.35 -3.6 3.15
      vertex -5.35 -3.6 3.15
    endloop
  endfacet
  facet normal 2.1893117540192248e-18 -0.7071067811865476 0.7071067811865475
    outer loop
      vertex 5.949999999999999 -3.1999999999999997 4.3
      vertex -5.35 -3.5934210526315793 3.9065789473684203
      vertex 5.35 -3.5934210526315793 3.9065789473684203
    endloop
  endfacet
  facet normal 0 0 1
    outer loop
      vertex -5.949999999999999 -2.8 4.3
      vertex 5.949999999999999 -3.1999999999999997 4.3
      vertex 5.949999999999999 -2.8 4.3
    endloop
  endfacet
  facet normal 0 1 0
    outer loop
      vertex -5.949999999999999 -2.8 4.3
      vertex 5.949999999999999 -2.8 4.3
      vertex 6.35 -2.8 3.9
    endloop
  endfacet
  facet normal 4.440892098500626e-16 -1 0
    outer loop
      vertex 6.35 -3.5999999999999996 0.9
      vertex 6.35 -3.5999999999999996 3.9
      vertex 5.35 -3.6 3.15
    endloop
  endfacet
  facet normal 1 0 0
    outer loop
      vertex 6.35 -2.8 0.9
      vertex 6.35 -2.8 3.9
      vertex 6.35 -3.5999999999999996 3.9
    endloop
  endfacet
  facet normal 0 -1 5.921189464667501e-16
    outer loop
      vertex 6.35 -3.5999999999999996 3.9
      vertex 5.35 -3.5999999999999996 3.9
      vertex 5.35 -3.6 3.15
    endloop
  endfacet
  facet normal -1.2874758161208449e-15 -0.7071067811865469 0.7071067811865482
    outer loop
      vertex 5.949999999999999 -3.1999999999999997 4.3
      vertex 5.35 -3.5934210526315793 3.9065789473684203
      vertex 5.35 -3.5999999999999996 3.9
    endloop
  endfacet
  facet normal 0 -0.7071067811865475 0.7071067811865475
    outer loop
      vertex 6.35 -3.5999999999999996 3.9
      vertex 5.949999999999999 -3.1999999999999997 4.3
      vertex 5.35 -3.5999999999999996 3.9
    endloop
  endfacet
  facet normal 0.7071067811865471 0 0.7071067811865479
    outer loop
      vertex 6.35 -3.5999999999999996 3.9
      vertex 6.35 -2.8 3.9
      vertex 5.949999999999999 -2.8 4.3
    endloop
  endfacet
  facet normal 0.7071067811865471 3.434577253370771e-17 0.7071067811865478
    outer loop
      vertex 6.35 -3.5999999999999996 3.9
      vertex 5.949999999999999 -2.8 4.3
      vertex 5.949999999999999 -3.1999999999999997 4.3
    endloop
  endfacet
  facet normal -0.6593458308664174 -0.7518397936522606 0
    outer loop
      vertex -7.1675228595733635 -4.786706683039665 0
      vertex -7.364213560521602 -4.614213560521603 0.9
      vertex -7.364213560521602 -4.614213560521603 0
    endloop
  endfacet
  facet normal -0.44228870708373313 -0.8968727332159228 0
    outer loop
      vertex -6.949999999999999 -4.932050806283951 0
      vertex -6.715366867184638 -5.047759068012238 0
      vertex -6.949999999999999 -4.932050806283951 0.9
    endloop
  endfacet
  facet normal -0.32143945792867507 -0.9469301319984065 0
    outer loop
      vertex -6.715366867184638 -5.047759068012238 0
      vertex -6.467638087272643 -5.1318516552448274 0
      vertex -6.715366867184638 -5.047759068012238 0.9
    endloop
  endfacet
  facet normal -0.5555702203832521 -0.8314696207458843 0
    outer loop
      vertex -7.1675228595733635 -4.786706683039665 0
      vertex -6.949999999999999 -4.932050806283951 0
      vertex -7.1675228595733635 -4.786706683039665 0.9
    endloop
  endfacet
  facet normal -0.6593458308664174 -0.7518397936522606 0
    outer loop
      vertex -7.1675228595733635 -4.786706683039665 0
      vertex -7.1675228595733635 -4.786706683039665 0.9
      vertex -7.364213560521602 -4.614213560521603 0.9
    endloop
  endfacet
  facet normal -0.5555702203832521 -0.8314696207458843 0
    outer loop
      vertex -6.949999999999999 -4.932050806283951 0
      vertex -6.949999999999999 -4.932050806283951 0.9
      vertex -7.1675228595733635 -4.786706683039665 0.9
    endloop
  endfacet
  facet normal -0.32143945792867507 -0.9469301319984065 0
    outer loop
      vertex -6.715366867184638 -5.047759068012238 0.9
      vertex -6.467638087272643 -5.1318516552448274 0
      vertex -6.467638087272643 -5.1318516552448274 0.9
    endloop
  endfacet
  facet normal -0.44228870708373313 -0.8968727332159228 0
    outer loop
      vertex -6.715366867184638 -5.047759068012238 0
      vertex -6.715366867184638 -5.047759068012238 0.9
      vertex -6.949999999999999 -4.932050806283951 0.9
    endloop
  endfacet
  facet normal -0.6751977296226752 -0.7376367845439818 0
    outer loop
      vertex -7.364213560521602 -4.614213560521603 0
      vertex -7.364213560521602 -4.614213560521603 0.9
      vertex -10.705634918610404 -1.5556349186104048 0.9
    endloop
  endfacet
  facet normal -0.7518398074789783 -0.6593458151000681 0
    outer loop
      vertex -10.895377348640716 -1.3392751438191854 0
      vertex -10.705634918610404 -1.5556349186104048 0
      vertex -10.895377348640716 -1.3392751438191854 0.9
    endloop
  endfacet
  facet normal -0.6751977296226752 -0.7376367845439818 -1.7414371573320827e-16
    outer loop
      vertex -7.364213560521602 -4.614213560521603 0
      vertex -10.705634918610404 -1.5556349186104048 0.9
      vertex -10.705634918610404 -1.5556349186104048 0
    endloop
  endfacet
  facet normal -0.7518398074789783 -0.6593458151000681 0
    outer loop
      vertex -10.705634918610404 -1.5556349186104048 0
      vertex -10.705634918610404 -1.5556349186104048 0.9
      vertex -10.895377348640716 -1.3392751438191854 0.9
    endloop
  endfacet
  facet normal -0.8314696123025451 -0.5555702330196025 -1.28244291244426e-17
    outer loop
      vertex -10.895377348640716 -1.3392751438191854 0
      vertex -11.055255888325764 -1.1 0.9
      vertex -11.055255888325764 -1.1 0
    endloop
  endfacet
  facet normal -0.8968727415326894 -0.44228869021899925 -3.622457979822011e-18
    outer loop
      vertex -11.055255888325764 -1.1 0
      vertex -11.182534971524829 -0.8419035512031976 0.9
      vertex -11.182534971524829 -0.8419035512031976 0
    endloop
  endfacet
  facet normal -0.9469301294951039 -0.3214394653031669 -5.782250285891868e-18
    outer loop
      vertex -11.182534971524829 -0.8419035512031976 0
      vertex -11.27503681783595 -0.5694018992255456 0.9
      vertex -11.27503681783595 -0.5694018992255456 0
    endloop
  endfacet
  facet normal 0 0 -1
    outer loop
      vertex -10.895377348640716 -1.3392751438191854 0
      vertex -11.055255888325764 -1.1 0
      vertex -10.895377348640716 1.3392751438191854 0
    endloop
  endfacet
  facet normal 0 0 -1
    outer loop
      vertex -10.895377348640716 -1.3392751438191854 0
      vertex -10.705634918610404 1.5556349186104048 0
      vertex -10.705634918610404 -1.5556349186104048 0
    endloop
  endfacet
  facet normal 0 0 -1
    outer loop
      vertex -11.182534971524829 -0.8419035512031976 0
      vertex -11.27503681783595 -0.5694018992255456 0
      vertex -11.182534971524829 0.8419035512031976 0
    endloop
  endfacet
  facet normal 0 0 -1
    outer loop
      vertex -11.055255888325764 -1.1 0
      vertex -11.182534971524829 -0.8419035512031976 0
      vertex -11.055255888325764 1.1 0
    endloop
  endfacet
  facet normal 0 0 -1
    outer loop
      vertex -11.27503681783595 -0.5694018992255456 0
      vertex -11.33117869502238 -0.2871576228841135 0
      vertex -11.27503681783595 0.5694018992255456 0
    endloop
  endfacet
  facet normal -0.980785280403232 -0.19509032201612062 -3.3309757236274525e-18
    outer loop
      vertex -11.27503681783595 -0.5694018992255456 0
      vertex -11.33117869502238 -0.2871576228841135 0.9
      vertex -11.33117869502238 -0.2871576228841135 0
    endloop
  endfacet
  facet normal -0.9978589232386035 -0.06540312923014398 -1.2904861959088142e-18
    outer loop
      vertex -11.33117869502238 -0.2871576228841135 0
      vertex -11.349999999999998 0 0.9
      vertex -11.349999999999998 0 0
    endloop
  endfacet
  facet normal -0.8968727415326894 -0.44228869021899925 0
    outer loop
      vertex -11.055255888325764 -1.1 0
      vertex -11.055255888325764 -1.1 0.9
      vertex -11.182534971524829 -0.8419035512031976 0.9
    endloop
  endfacet
  facet normal -0.8314696123025451 -0.5555702330196025 0
    outer loop
      vertex -10.895377348640716 -1.3392751438191854 0
      vertex -10.895377348640716 -1.3392751438191854 0.9
      vertex -11.055255888325764 -1.1 0.9
    endloop
  endfacet
  facet normal -0.9469301294951039 -0.3214394653031669 0
    outer loop
      vertex -11.182534971524829 -0.8419035512031976 0
      vertex -11.182534971524829 -0.8419035512031976 0.9
      vertex -11.27503681783595 -0.5694018992255456 0.9
    endloop
  endfacet
  facet normal -0.980785280403232 -0.19509032201612062 0
    outer loop
      vertex -11.27503681783595 -0.5694018992255456 0
      vertex -11.27503681783595 -0.5694018992255456 0.9
      vertex -11.33117869502238 -0.2871576228841135 0.9
    endloop
  endfacet
  facet normal -0.9978589232386035 -0.06540312923014398 0
    outer loop
      vertex -11.33117869502238 -0.2871576228841135 0
      vertex -11.33117869502238 -0.2871576228841135 0.9
      vertex -11.349999999999998 0 0.9
    endloop
  endfacet
  facet normal 0 0 1
    outer loop
      vertex -10.895377348640716 -1.3392751438191854 0.9
      vertex -10.895377348640716 1.3392751438191854 0.9
      vertex -11.055255888325764 -1.1 0.9
    endloop
  endfacet
  facet normal 0 0 1
    outer loop
      vertex -10.895377348640716 -1.3392751438191854 0.9
      vertex -10.705634918610404 -1.5556349186104048 0.9
      vertex -10.705634918610404 1.5556349186104048 0.9
    endloop
  endfacet
  facet normal 0 0 1
    outer loop
      vertex -11.182534971524829 -0.8419035512031976 0.9
      vertex -11.182534971524829 0.8419035512031976 0.9
      vertex -11.27503681783595 -0.5694018992255456 0.9
    endloop
  endfacet
  facet normal 0 0 1
    outer loop
      vertex -11.055255888325764 -1.1 0.9
      vertex -11.055255888325764 1.1 0.9
      vertex -11.182534971524829 -0.8419035512031976 0.9
    endloop
  endfacet
  facet normal 0 0 1
    outer loop
      vertex -11.27503681783595 -0.5694018992255456 0.9
      vertex -11.27503681783595 0.5694018992255456 0.9
      vertex -11.33117869502238 -0.2871576228841135 0.9
    endloop
  endfacet
  facet normal 0 0 -1
    outer loop
      vertex -7.1675228595733635 -4.786706683039665 0
      vertex -7.364213560521602 -4.614213560521603 0
      vertex -7.1675228595733635 4.786706681549549 0
    endloop
  endfacet
  facet normal 0 0 -1
    outer loop
      vertex -6.949999999999999 -4.932050806283951 0
      vertex -6.715366867184638 5.047759066522121 0
      vertex -6.715366867184638 -5.047759068012238 0
    endloop
  endfacet
  facet normal 0 0 -1
    outer loop
      vertex -6.715366867184638 -5.047759068012238 0
      vertex -6.467638087272643 5.131851653754711 0
      vertex -6.467638087272643 -5.1318516552448274 0
    endloop
  endfacet
  facet normal 0 0 -1
    outer loop
      vertex -7.1675228595733635 -4.786706683039665 0
      vertex -6.949999999999999 4.9320508047938345 0
      vertex -6.949999999999999 -4.932050806283951 0
    endloop
  endfacet
  facet normal 0 0 1
    outer loop
      vertex -7.1675228595733635 -4.786706683039665 0.9
      vertex -7.1675228595733635 4.786706681549549 0.9
      vertex -7.364213560521602 -4.614213560521603 0.9
    endloop
  endfacet
  facet normal 0 0 1
    outer loop
      vertex -6.949999999999999 -4.932050806283951 0.9
      vertex -6.715366867184638 -5.047759068012238 0.9
      vertex -6.715366867184638 5.047759066522121 0.9
    endloop
  endfacet
  facet normal 0 0 1
    outer loop
      vertex -6.715366867184638 -5.047759068012238 0.9
      vertex -6.467638087272643 -5.1318516552448274 0.9
      vertex -6.467638087272643 5.131851653754711 0.9
    endloop
  endfacet
  facet normal 0 0 1
    outer loop
      vertex -7.1675228595733635 -4.786706683039665 0.9
      vertex -6.949999999999999 -4.932050806283951 0.9
      vertex -6.949999999999999 4.9320508047938345 0.9
    endloop
  endfacet
  facet normal 0 0 -1
    outer loop
      vertex -7.364213560521602 -4.614213560521603 0
      vertex -10.705634918610404 -1.5556349186104048 0
      vertex -7.364213560521602 4.614213559031486 0
    endloop
  endfacet
  facet normal 0 0 1
    outer loop
      vertex -7.364213560521602 -4.614213560521603 0.9
      vertex -7.364213560521602 4.614213559031486 0.9
      vertex -10.705634918610404 -1.5556349186104048 0.9
    endloop
  endfacet
  facet normal -0.1950903020954995 -0.9807852843656897 0
    outer loop
      vertex -6.467638087272643 -5.1318516552448274 0
      vertex -6.211052384972572 -5.182889719307423 0
      vertex -6.467638087272643 -5.1318516552448274 0.9
    endloop
  endfacet
  facet normal -0.06540314219103631 -0.9978589223891017 0
    outer loop
      vertex -6.211052384972572 -5.182889719307423 0
      vertex -5.949999999999999 -5.2 0
      vertex -6.211052384972572 -5.182889719307423 0.9
    endloop
  endfacet
  facet normal -0.1950903020954995 -0.9807852843656897 0
    outer loop
      vertex -6.211052384972572 -5.182889719307423 0
      vertex -6.211052384972572 -5.182889719307423 0.9
      vertex -6.467638087272643 -5.1318516552448274 0.9
    endloop
  endfacet
  facet normal -0.06540314219103631 -0.9978589223891017 0
    outer loop
      vertex -5.949999999999999 -5.2 0
      vertex -5.949999999999999 -5.2 0.9
      vertex -6.211052384972572 -5.182889719307423 0.9
    endloop
  endfacet
  facet normal 0 0 1
    outer loop
      vertex -6.467638087272643 -5.1318516552448274 0.9
      vertex -6.211052384972572 -5.182889719307423 0.9
      vertex -6.35 -3.5999999999999996 0.9
    endloop
  endfacet
  facet normal 0 0 1
    outer loop
      vertex -6.211052384972572 -5.182889719307423 0.9
      vertex -5.949999999999999 -5.2 0.9
      vertex -6.35 -3.5999999999999996 0.9
    endloop
  endfacet
  facet normal 0 0 1
    outer loop
      vertex -6.467638087272643 -5.1318516552448274 0.9
      vertex -6.35 -3.5999999999999996 0.9
      vertex -6.35 -2.8 0.9
    endloop
  endfacet
  facet normal 0 -1 0
    outer loop
      vertex -5.949999999999999 -5.2 0
      vertex 5.949999998509885 -5.2 0
      vertex -5.949999999999999 -5.2 0.9
    endloop
  endfacet
  facet normal 0 0 1
    outer loop
      vertex -5.949999999999999 -5.2 0.9
      vertex 5.949999998509885 -5.2 0.9
      vertex -6.35 -3.5999999999999996 0.9
    endloop
  endfacet
  facet normal 0 0 -1
    outer loop
      vertex -6.467638087272643 -5.1318516552448274 0
      vertex -6.211052384972572 5.182889717817306 0
      vertex -6.211052384972572 -5.182889719307423 0
    endloop
  endfacet
  facet normal 0 0 -1
    outer loop
      vertex -6.211052384972572 -5.182889719307423 0
      vertex -5.949999999999999 5.199999998509884 0
      vertex -5.949999999999999 -5.2 0
    endloop
  endfacet
  facet normal 0 0 1
    outer loop
      vertex -6.467638087272643 -5.1318516552448274 0.9
      vertex -6.35 -2.8 0.9
      vertex -6.35 2.8 0.9
    endloop
  endfacet
  facet normal 0 0 1
    outer loop
      vertex -6.35 -2.8 0.9
      vertex 6.35 -2.8 0.9
      vertex -6.35 2.8 0.9
    endloop
  endfacet
  facet normal 0 0 -1
    outer loop
      vertex -11.33117869502238 -0.2871576228841135 0
      vertex -11.349999999999998 0 0
      vertex -11.33117869502238 0.2871576228841135 0
    endloop
  endfacet
  facet normal 0 0 -1
    outer loop
      vertex -11.33117869502238 -0.2871576228841135 0
      vertex -11.33117869502238 0.2871576228841135 0
      vertex -11.27503681783595 0.5694018992255456 0
    endloop
  endfacet
  facet normal 0 0 -1
    outer loop
      vertex -11.27503681783595 -0.5694018992255456 0
      vertex -11.27503681783595 0.5694018992255456 0
      vertex -11.182534971524829 0.8419035512031976 0
    endloop
  endfacet
  facet normal 0 0 -1
    outer loop
      vertex -11.182534971524829 -0.8419035512031976 0
      vertex -11.182534971524829 0.8419035512031976 0
      vertex -11.055255888325764 1.1 0
    endloop
  endfacet
  facet normal 0 0 -1
    outer loop
      vertex -11.055255888325764 -1.1 0
      vertex -11.055255888325764 1.1 0
      vertex -10.895377348640716 1.3392751438191854 0
    endloop
  endfacet
  facet normal 0 0 -1
    outer loop
      vertex -10.895377348640716 -1.3392751438191854 0
      vertex -10.895377348640716 1.3392751438191854 0
      vertex -10.705634918610404 1.5556349186104048 0
    endloop
  endfacet
  facet normal -0.9978589232386035 0.06540312923014398 1.2904861959088142e-18
    outer loop
      vertex -11.349999999999998 0 0
      vertex -11.33117869502238 0.2871576228841135 0.9
      vertex -11.33117869502238 0.2871576228841135 0
    endloop
  endfacet
  facet normal -0.980785280403232 0.19509032201612062 3.3309757236274525e-18
    outer loop
      vertex -11.33117869502238 0.2871576228841135 0
      vertex -11.27503681783595 0.5694018992255456 0.9
      vertex -11.27503681783595 0.5694018992255456 0
    endloop
  endfacet
  facet normal -0.9469301294951039 0.3214394653031669 5.782250285891868e-18
    outer loop
      vertex -11.27503681783595 0.5694018992255456 0
      vertex -11.182534971524829 0.8419035512031976 0.9
      vertex -11.182534971524829 0.8419035512031976 0
    endloop
  endfacet
  facet normal -0.8968727415326894 0.44228869021899925 3.622457979822011e-18
    outer loop
      vertex -11.182534971524829 0.8419035512031976 0
      vertex -11.055255888325764 1.1 0.9
      vertex -11.055255888325764 1.1 0
    endloop
  endfacet
  facet normal -0.8314696123025451 0.5555702330196025 1.28244291244426e-17
    outer loop
      vertex -11.055255888325764 1.1 0
      vertex -10.895377348640716 1.3392751438191854 0.9
      vertex -10.895377348640716 1.3392751438191854 0
    endloop
  endfacet
  facet normal -0.9978589232386035 0.06540312923014398 0
    outer loop
      vertex -11.349999999999998 0 0
      vertex -11.349999999999998 0 0.9
      vertex -11.33117869502238 0.2871576228841135 0.9
    endloop
  endfacet
  facet normal -0.980785280403232 0.19509032201612062 0
    outer loop
      vertex -11.33117869502238 0.2871576228841135 0
      vertex -11.33117869502238 0.2871576228841135 0.9
      vertex -11.27503681783595 0.5694018992255456 0.9
    endloop
  endfacet
  facet normal 0 0 1
    outer loop
      vertex -11.33117869502238 -0.2871576228841135 0.9
      vertex -11.33117869502238 0.2871576228841135 0.9
      vertex -11.349999999999998 0 0.9
    endloop
  endfacet
  facet normal 0 0 1
    outer loop
      vertex -11.33117869502238 -0.2871576228841135 0.9
      vertex -11.27503681783595 0.5694018992255456 0.9
      vertex -11.33117869502238 0.2871576228841135 0.9
    endloop
  endfacet
  facet normal 0 0 1
    outer loop
      vertex -11.27503681783595 -0.5694018992255456 0.9
      vertex -11.182534971524829 0.8419035512031976 0.9
      vertex -11.27503681783595 0.5694018992255456 0.9
    endloop
  endfacet
  facet normal 0 0 1
    outer loop
      vertex -11.182534971524829 -0.8419035512031976 0.9
      vertex -11.055255888325764 1.1 0.9
      vertex -11.182534971524829 0.8419035512031976 0.9
    endloop
  endfacet
  facet normal 0 0 1
    outer loop
      vertex -11.055255888325764 -1.1 0.9
      vertex -10.895377348640716 1.3392751438191854 0.9
      vertex -11.055255888325764 1.1 0.9
    endloop
  endfacet
  facet normal 0 0 1
    outer loop
      vertex -10.895377348640716 -1.3392751438191854 0.9
      vertex -10.705634918610404 1.5556349186104048 0.9
      vertex -10.895377348640716 1.3392751438191854 0.9
    endloop
  endfacet
  facet normal -0.9469301294951039 0.3214394653031669 0
    outer loop
      vertex -11.27503681783595 0.5694018992255456 0
      vertex -11.27503681783595 0.5694018992255456 0.9
      vertex -11.182534971524829 0.8419035512031976 0.9
    endloop
  endfacet
  facet normal -0.8968727415326894 0.44228869021899925 0
    outer loop
      vertex -11.182534971524829 0.8419035512031976 0
      vertex -11.182534971524829 0.8419035512031976 0.9
      vertex -11.055255888325764 1.1 0.9
    endloop
  endfacet
  facet normal -0.8314696123025451 0.5555702330196025 0
    outer loop
      vertex -11.055255888325764 1.1 0
      vertex -11.055255888325764 1.1 0.9
      vertex -10.895377348640716 1.3392751438191854 0.9
    endloop
  endfacet
  facet normal -0.7518398074789783 0.6593458151000681 -1.1218785739743088e-17
    outer loop
      vertex -10.895377348640716 1.3392751438191854 0
      vertex -10.705634918610404 1.5556349186104048 0.9
      vertex -10.705634918610404 1.5556349186104048 0
    endloop
  endfacet
  facet normal 0 0 -1
    outer loop
      vertex -10.705634918610404 -1.5556349186104048 0
      vertex -10.705634918610404 1.5556349186104048 0
      vertex -7.364213560521602 4.614213559031486 0
    endloop
  endfacet
  facet normal -0.7518398074789783 0.6593458151000681 0
    outer loop
      vertex -10.895377348640716 1.3392751438191854 0
      vertex -10.895377348640716 1.3392751438191854 0.9
      vertex -10.705634918610404 1.5556349186104048 0.9
    endloop
  endfacet
  facet normal 0 0 1
    outer loop
      vertex -10.705634918610404 -1.5556349186104048 0.9
      vertex -7.364213560521602 4.614213559031486 0.9
      vertex -10.705634918610404 1.5556349186104048 0.9
    endloop
  endfacet
  facet normal -0.6751977294436902 0.7376367847078164 0
    outer loop
      vertex -10.705634918610404 1.5556349186104048 0
      vertex -10.705634918610404 1.5556349186104048 0.9
      vertex -7.364213560521602 4.614213559031486 0.9
    endloop
  endfacet
  facet normal 0 0 -1
    outer loop
      vertex -7.364213560521602 -4.614213560521603 0
      vertex -7.364213560521602 4.614213559031486 0
      vertex -7.1675228595733635 4.786706681549549 0
    endloop
  endfacet
  facet normal 0 0 -1
    outer loop
      vertex -7.1675228595733635 -4.786706683039665 0
      vertex -7.1675228595733635 4.786706681549549 0
      vertex -6.949999999999999 4.9320508047938345 0
    endloop
  endfacet
  facet normal 0 0 -1
    outer loop
      vertex -6.949999999999999 -4.932050806283951 0
      vertex -6.949999999999999 4.9320508047938345 0
      vertex -6.715366867184638 5.047759066522121 0
    endloop
  endfacet
  facet normal 0 0 -1
    outer loop
      vertex -6.715366867184638 -5.047759068012238 0
      vertex -6.715366867184638 5.047759066522121 0
      vertex -6.467638087272643 5.131851653754711 0
    endloop
  endfacet
  facet normal 0 0 1
    outer loop
      vertex -7.364213560521602 -4.614213560521603 0.9
      vertex -7.1675228595733635 4.786706681549549 0.9
      vertex -7.364213560521602 4.614213559031486 0.9
    endloop
  endfacet
  facet normal 0 0 1
    outer loop
      vertex -7.1675228595733635 -4.786706683039665 0.9
      vertex -6.949999999999999 4.9320508047938345 0.9
      vertex -7.1675228595733635 4.786706681549549 0.9
    endloop
  endfacet
  facet normal 0 0 1
    outer loop
      vertex -6.949999999999999 -4.932050806283951 0.9
      vertex -6.715366867184638 5.047759066522121 0.9
      vertex -6.949999999999999 4.9320508047938345 0.9
    endloop
  endfacet
  facet normal 0 0 1
    outer loop
      vertex -6.715366867184638 -5.047759068012238 0.9
      vertex -6.467638087272643 5.131851653754711 0.9
      vertex -6.715366867184638 5.047759066522121 0.9
    endloop
  endfacet
  facet normal -0.6751977294436902 0.7376367847078164 1.4718723407326375e-16
    outer loop
      vertex -10.705634918610404 1.5556349186104048 0
      vertex -7.364213560521602 4.614213559031486 0.9
      vertex -7.364213560521602 4.614213559031486 0
    endloop
  endfacet
  facet normal -0.6593458308664174 0.7518397936522606 0
    outer loop
      vertex -7.364213560521602 4.614213559031486 0
      vertex -7.1675228595733635 4.786706681549549 0.9
      vertex -7.1675228595733635 4.786706681549549 0
    endloop
  endfacet
  facet normal -0.5555702203832521 0.8314696207458843 0
    outer loop
      vertex -7.1675228595733635 4.786706681549549 0
      vertex -6.949999999999999 4.9320508047938345 0.9
      vertex -6.949999999999999 4.9320508047938345 0
    endloop
  endfacet
  facet normal -0.44228870708373313 0.8968727332159228 0
    outer loop
      vertex -6.949999999999999 4.9320508047938345 0
      vertex -6.715366867184638 5.047759066522121 0.9
      vertex -6.715366867184638 5.047759066522121 0
    endloop
  endfacet
  facet normal -0.32143945792867507 0.9469301319984065 0
    outer loop
      vertex -6.715366867184638 5.047759066522121 0
      vertex -6.467638087272643 5.131851653754711 0.9
      vertex -6.467638087272643 5.131851653754711 0
    endloop
  endfacet
  facet normal -0.6593458308664174 0.7518397936522606 0
    outer loop
      vertex -7.364213560521602 4.614213559031486 0
      vertex -7.364213560521602 4.614213559031486 0.9
      vertex -7.1675228595733635 4.786706681549549 0.9
    endloop
  endfacet
  facet normal -0.5555702203832521 0.8314696207458843 0
    outer loop
      vertex -7.1675228595733635 4.786706681549549 0
      vertex -7.1675228595733635 4.786706681549549 0.9
      vertex -6.949999999999999 4.9320508047938345 0.9
    endloop
  endfacet
  facet normal -0.44228870708373313 0.8968727332159228 0
    outer loop
      vertex -6.949999999999999 4.9320508047938345 0
      vertex -6.949999999999999 4.9320508047938345 0.9
      vertex -6.715366867184638 5.047759066522121 0.9
    endloop
  endfacet
  facet normal -0.32143945792867507 0.9469301319984065 0
    outer loop
      vertex -6.715366867184638 5.047759066522121 0
      vertex -6.715366867184638 5.047759066522121 0.9
      vertex -6.467638087272643 5.131851653754711 0.9
    endloop
  endfacet
  facet normal 0 0 1
    outer loop
      vertex -6.467638087272643 -5.1318516552448274 0.9
      vertex -6.35 2.8 0.9
      vertex -6.35 3.5999999999999996 0.9
    endloop
  endfacet
  facet normal 0 0 1
    outer loop
      vertex -6.467638087272643 -5.1318516552448274 0.9
      vertex -6.35 3.5999999999999996 0.9
      vertex -6.467638087272643 5.131851653754711 0.9
    endloop
  endfacet
  facet normal 0 0 -1
    outer loop
      vertex -6.467638087272643 -5.1318516552448274 0
      vertex -6.467638087272643 5.131851653754711 0
      vertex -6.211052384972572 5.182889717817306 0
    endloop
  endfacet
  facet normal 0 0 -1
    outer loop
      vertex -6.211052384972572 -5.182889719307423 0
      vertex -6.211052384972572 5.182889717817306 0
      vertex -5.949999999999999 5.199999998509884 0
    endloop
  endfacet
  facet normal 0 0 -1
    outer loop
      vertex -5.949999999999999 -5.2 0
      vertex -5.949999999999999 5.199999998509884 0
      vertex 5.949999998509885 5.199999998509884 0
    endloop
  endfacet
  facet normal -0.1950903020954995 0.9807852843656897 0
    outer loop
      vertex -6.467638087272643 5.131851653754711 0
      vertex -6.211052384972572 5.182889717817306 0.9
      vertex -6.211052384972572 5.182889717817306 0
    endloop
  endfacet
  facet normal -0.06540314219103631 0.9978589223891017 0
    outer loop
      vertex -6.211052384972572 5.182889717817306 0
      vertex -5.949999999999999 5.199999998509884 0.9
      vertex -5.949999999999999 5.199999998509884 0
    endloop
  endfacet
  facet normal -0.1950903020954995 0.9807852843656897 0
    outer loop
      vertex -6.467638087272643 5.131851653754711 0
      vertex -6.467638087272643 5.131851653754711 0.9
      vertex -6.211052384972572 5.182889717817306 0.9
    endloop
  endfacet
  facet normal -0.06540314219103631 0.9978589223891017 0
    outer loop
      vertex -6.211052384972572 5.182889717817306 0
      vertex -6.211052384972572 5.182889717817306 0.9
      vertex -5.949999999999999 5.199999998509884 0.9
    endloop
  endfacet
  facet normal 0 0 1
    outer loop
      vertex -6.35 3.5999999999999996 0.9
      vertex 6.35 3.5999999999999996 0.9
      vertex -6.467638087272643 5.131851653754711 0.9
    endloop
  endfacet
  facet normal 0 1 0
    outer loop
      vertex -5.949999999999999 5.199999998509884 0
      vertex -5.949999999999999 5.199999998509884 0.9
      vertex 5.949999998509885 5.199999998509884 0.9
    endloop
  endfacet
  facet normal 0 0 1
    outer loop
      vertex -6.467638087272643 5.131851653754711 0.9
      vertex 6.35 3.5999999999999996 0.9
      vertex -6.211052384972572 5.182889717817306 0.9
    endloop
  endfacet
  facet normal 0 0 1
    outer loop
      vertex -6.211052384972572 5.182889717817306 0.9
      vertex 6.35 3.5999999999999996 0.9
      vertex -5.949999999999999 5.199999998509884 0.9
    endloop
  endfacet
  facet normal 0 -1 0
    outer loop
      vertex -5.949999999999999 -5.2 0.9
      vertex 5.949999998509885 -5.2 0
      vertex 5.949999998509885 -5.2 0.9
    endloop
  endfacet
  facet normal 0 0 1
    outer loop
      vertex -6.35 -3.5999999999999996 0.9
      vertex 5.949999998509885 -5.2 0.9
      vertex 6.211052383482457 -5.182889719307423 0.9
    endloop
  endfacet
  facet normal 0 0 1
    outer loop
      vertex -6.35 -3.5999999999999996 0.9
      vertex 6.211052383482457 -5.182889719307423 0.9
      vertex 6.467638085782529 -5.1318516552448274 0.9
    endloop
  endfacet
  facet normal 0 0 1
    outer loop
      vertex -6.35 -3.5999999999999996 0.9
      vertex 6.467638085782529 -5.1318516552448274 0.9
      vertex 6.35 -3.5999999999999996 0.9
    endloop
  endfacet
  facet normal 0 0 -1
    outer loop
      vertex -5.949999999999999 -5.2 0
      vertex 5.949999998509885 5.199999998509884 0
      vertex 5.949999998509885 -5.2 0
    endloop
  endfacet
  facet normal 0.06540314219103631 -0.9978589223891017 0
    outer loop
      vertex 5.949999998509885 -5.2 0
      vertex 6.211052383482457 -5.182889719307423 0
      vertex 5.949999998509885 -5.2 0.9
    endloop
  endfacet
  facet normal 0.1950903020954995 -0.9807852843656897 0
    outer loop
      vertex 6.211052383482457 -5.182889719307423 0
      vertex 6.467638085782529 -5.1318516552448274 0
      vertex 6.211052383482457 -5.182889719307423 0.9
    endloop
  endfacet
  facet normal 0.32143945792867507 -0.9469301319984065 0
    outer loop
      vertex 6.467638085782529 -5.1318516552448274 0
      vertex 6.715366865694524 -5.047759068012238 0
      vertex 6.467638085782529 -5.1318516552448274 0.9
    endloop
  endfacet
  facet normal 0.44228870708373313 -0.8968727332159228 0
    outer loop
      vertex 6.715366865694524 -5.047759068012238 0
      vertex 6.949999998509885 -4.932050806283951 0
      vertex 6.715366865694524 -5.047759068012238 0.9
    endloop
  endfacet
  facet normal 0.5555702203832521 -0.8314696207458843 0
    outer loop
      vertex 6.949999998509885 -4.932050806283951 0
      vertex 7.167522858083249 -4.786706683039665 0
      vertex 6.949999998509885 -4.932050806283951 0.9
    endloop
  endfacet
  facet normal 0.6593458308664174 -0.7518397936522606 0
    outer loop
      vertex 7.167522858083249 -4.786706683039665 0
      vertex 7.364213559031487 -4.614213560521603 0
      vertex 7.167522858083249 -4.786706683039665 0.9
    endloop
  endfacet
  facet normal 0.7518397936522606 -0.6593458308664174 0
    outer loop
      vertex 7.364213559031487 -4.614213560521603 0
      vertex 7.53670668154955 -4.417522859573364 0
      vertex 7.364213559031487 -4.614213560521603 0.9
    endloop
  endfacet
  facet normal 0.8314696207458843 -0.5555702203832521 0
    outer loop
      vertex 7.53670668154955 -4.417522859573364 0
      vertex 7.682050804793835 -4.2 0
      vertex 7.53670668154955 -4.417522859573364 0.9
    endloop
  endfacet
  facet normal 0.8968727332159228 -0.44228870708373313 0
    outer loop
      vertex 7.682050804793835 -4.2 0
      vertex 7.797759066522122 -3.965366867184639 0
      vertex 7.682050804793835 -4.2 0.9
    endloop
  endfacet
  facet normal 0.06540314219103631 -0.9978589223891017 0
    outer loop
      vertex 6.211052383482457 -5.182889719307423 0
      vertex 6.211052383482457 -5.182889719307423 0.9
      vertex 5.949999998509885 -5.2 0.9
    endloop
  endfacet
  facet normal 0.1950903020954995 -0.9807852843656897 0
    outer loop
      vertex 6.467638085782529 -5.1318516552448274 0
      vertex 6.467638085782529 -5.1318516552448274 0.9
      vertex 6.211052383482457 -5.182889719307423 0.9
    endloop
  endfacet
  facet normal 0.32143945792867507 -0.9469301319984065 0
    outer loop
      vertex 6.715366865694524 -5.047759068012238 0
      vertex 6.715366865694524 -5.047759068012238 0.9
      vertex 6.467638085782529 -5.1318516552448274 0.9
    endloop
  endfacet
  facet normal 0.44228870708373313 -0.8968727332159228 0
    outer loop
      vertex 6.949999998509885 -4.932050806283951 0
      vertex 6.949999998509885 -4.932050806283951 0.9
      vertex 6.715366865694524 -5.047759068012238 0.9
    endloop
  endfacet
  facet normal 0.5555702203832521 -0.8314696207458843 0
    outer loop
      vertex 7.167522858083249 -4.786706683039665 0
      vertex 7.167522858083249 -4.786706683039665 0.9
      vertex 6.949999998509885 -4.932050806283951 0.9
    endloop
  endfacet
  facet normal 0.6593458308664174 -0.7518397936522606 0
    outer loop
      vertex 7.364213559031487 -4.614213560521603 0
      vertex 7.364213559031487 -4.614213560521603 0.9
      vertex 7.167522858083249 -4.786706683039665 0.9
    endloop
  endfacet
  facet normal 0.7518397936522606 -0.6593458308664174 0
    outer loop
      vertex 7.53670668154955 -4.417522859573364 0
      vertex 7.53670668154955 -4.417522859573364 0.9
      vertex 7.364213559031487 -4.614213560521603 0.9
    endloop
  endfacet
  facet normal 0.8314696207458843 -0.5555702203832521 0
    outer loop
      vertex 7.682050804793835 -4.2 0
      vertex 7.682050804793835 -4.2 0.9
      vertex 7.53670668154955 -4.417522859573364 0.9
    endloop
  endfacet
  facet normal 0.8968727332159228 -0.44228870708373313 0
    outer loop
      vertex 7.797759066522122 -3.965366867184639 0
      vertex 7.797759066522122 -3.965366867184639 0.9
      vertex 7.682050804793835 -4.2 0.9
    endloop
  endfacet
  facet normal 0.9469301319984065 -0.32143945792867507 0
    outer loop
      vertex 7.797759066522122 -3.965366867184639 0
      vertex 7.881851653754712 -3.717638087272644 0
      vertex 7.797759066522122 -3.965366867184639 0.9
    endloop
  endfacet
  facet normal 0.9807852843656897 -0.1950903020954995 0
    outer loop
      vertex 7.881851653754712 -3.717638087272644 0
      vertex 7.932889717817307 -3.4610523849725725 0
      vertex 7.881851653754712 -3.717638087272644 0.9
    endloop
  endfacet
  facet normal 0.9978589223891017 -0.06540314219103631 0
    outer loop
      vertex 7.932889717817307 -3.4610523849725725 0
      vertex 7.949999998509885 -3.2 0
      vertex 7.932889717817307 -3.4610523849725725 0.9
    endloop
  endfacet
  facet normal 0.9469301319984065 -0.32143945792867507 0
    outer loop
      vertex 7.797759066522122 -3.965366867184639 0.9
      vertex 7.881851653754712 -3.717638087272644 0
      vertex 7.881851653754712 -3.717638087272644 0.9
    endloop
  endfacet
  facet normal 0.9807852843656897 -0.1950903020954995 0
    outer loop
      vertex 7.932889717817307 -3.4610523849725725 0
      vertex 7.932889717817307 -3.4610523849725725 0.9
      vertex 7.881851653754712 -3.717638087272644 0.9
    endloop
  endfacet
  facet normal 0.9978589223891017 -0.06540314219103631 0
    outer loop
      vertex 7.949999998509885 -3.2 0
      vertex 7.949999998509885 -3.2 0.9
      vertex 7.932889717817307 -3.4610523849725725 0.9
    endloop
  endfacet
  facet normal 0 0 -1
    outer loop
      vertex 5.949999998509885 -5.2 0
      vertex 6.211052383482457 5.182889717817306 0
      vertex 6.211052383482457 -5.182889719307423 0
    endloop
  endfacet
  facet normal 0 0 -1
    outer loop
      vertex 6.211052383482457 -5.182889719307423 0
      vertex 6.467638085782529 5.131851653754711 0
      vertex 6.467638085782529 -5.1318516552448274 0
    endloop
  endfacet
  facet normal 0 0 -1
    outer loop
      vertex 6.467638085782529 -5.1318516552448274 0
      vertex 6.715366865694524 5.047759066522121 0
      vertex 6.715366865694524 -5.047759068012238 0
    endloop
  endfacet
  facet normal 0 0 -1
    outer loop
      vertex 6.715366865694524 -5.047759068012238 0
      vertex 6.949999998509885 4.9320508047938345 0
      vertex 6.949999998509885 -4.932050806283951 0
    endloop
  endfacet
  facet normal 0 0 -1
    outer loop
      vertex 6.949999998509885 -4.932050806283951 0
      vertex 7.167522858083249 4.786706681549549 0
      vertex 7.167522858083249 -4.786706683039665 0
    endloop
  endfacet
  facet normal 0 0 -1
    outer loop
      vertex 7.167522858083249 -4.786706683039665 0
      vertex 7.364213559031487 4.614213559031486 0
      vertex 7.364213559031487 -4.614213560521603 0
    endloop
  endfacet
  facet normal 0 0 -1
    outer loop
      vertex 7.364213559031487 -4.614213560521603 0
      vertex 7.53670668154955 4.417522858083248 0
      vertex 7.53670668154955 -4.417522859573364 0
    endloop
  endfacet
  facet normal 0 0 -1
    outer loop
      vertex 7.53670668154955 -4.417522859573364 0
      vertex 7.682050804793835 4.199999998509884 0
      vertex 7.682050804793835 -4.2 0
    endloop
  endfacet
  facet normal 0 0 -1
    outer loop
      vertex 7.682050804793835 -4.2 0
      vertex 7.797759066522122 3.9653668656945227 0
      vertex 7.797759066522122 -3.965366867184639 0
    endloop
  endfacet
  facet normal 0 0 -1
    outer loop
      vertex 7.797759066522122 -3.965366867184639 0
      vertex 7.881851653754712 3.7176380857825277 0
      vertex 7.881851653754712 -3.717638087272644 0
    endloop
  endfacet
  facet normal 0 0 1
    outer loop
      vertex 6.467638085782529 -5.1318516552448274 0.9
      vertex 6.715366865694524 -5.047759068012238 0.9
      vertex 6.715366865694524 5.047759066522121 0.9
    endloop
  endfacet
  facet normal 0 0 1
    outer loop
      vertex 6.715366865694524 -5.047759068012238 0.9
      vertex 6.949999998509885 -4.932050806283951 0.9
      vertex 6.949999998509885 4.9320508047938345 0.9
    endloop
  endfacet
  facet normal 0 0 1
    outer loop
      vertex 6.949999998509885 -4.932050806283951 0.9
      vertex 7.167522858083249 -4.786706683039665 0.9
      vertex 7.167522858083249 4.786706681549549 0.9
    endloop
  endfacet
  facet normal 0 0 1
    outer loop
      vertex 7.167522858083249 -4.786706683039665 0.9
      vertex 7.364213559031487 -4.614213560521603 0.9
      vertex 7.364213559031487 4.614213559031486 0.9
    endloop
  endfacet
  facet normal 0 0 1
    outer loop
      vertex 7.364213559031487 -4.614213560521603 0.9
      vertex 7.53670668154955 -4.417522859573364 0.9
      vertex 7.53670668154955 4.417522858083248 0.9
    endloop
  endfacet
  facet normal 0 0 1
    outer loop
      vertex 7.53670668154955 -4.417522859573364 0.9
      vertex 7.682050804793835 -4.2 0.9
      vertex 7.682050804793835 4.199999998509884 0.9
    endloop
  endfacet
  facet normal 0 0 1
    outer loop
      vertex 7.682050804793835 -4.2 0.9
      vertex 7.797759066522122 -3.965366867184639 0.9
      vertex 7.797759066522122 3.9653668656945227 0.9
    endloop
  endfacet
  facet normal 0 0 1
    outer loop
      vertex 7.797759066522122 -3.965366867184639 0.9
      vertex 7.881851653754712 -3.717638087272644 0.9
      vertex 7.881851653754712 3.7176380857825277 0.9
    endloop
  endfacet
  facet normal 0 0 -1
    outer loop
      vertex 7.881851653754712 -3.717638087272644 0
      vertex 7.932889717817307 3.461052383482456 0
      vertex 7.932889717817307 -3.4610523849725725 0
    endloop
  endfacet
  facet normal 0 0 -1
    outer loop
      vertex 7.932889717817307 -3.4610523849725725 0
      vertex 7.949999998509885 3.1999999985098837 0
      vertex 7.949999998509885 -3.2 0
    endloop
  endfacet
  facet normal 1 0 0
    outer loop
      vertex 7.949999998509885 -3.2 0
      vertex 7.949999998509885 3.1999999985098837 0
      vertex 7.949999998509885 -3.2 0.9
    endloop
  endfacet
  facet normal 0 0 1
    outer loop
      vertex 6.467638085782529 -5.1318516552448274 0.9
      vertex 6.467638085782529 5.131851653754711 0.9
      vertex 6.35 -3.5999999999999996 0.9
    endloop
  endfacet
  facet normal 0 0 1
    outer loop
      vertex 6.35 -3.5999999999999996 0.9
      vertex 6.467638085782529 5.131851653754711 0.9
      vertex 6.35 -2.8 0.9
    endloop
  endfacet
  facet normal 0 0 1
    outer loop
      vertex 7.881851653754712 -3.717638087272644 0.9
      vertex 7.932889717817307 -3.4610523849725725 0.9
      vertex 7.932889717817307 3.461052383482456 0.9
    endloop
  endfacet
  facet normal 0 0 1
    outer loop
      vertex 7.932889717817307 -3.4610523849725725 0.9
      vertex 7.949999998509885 -3.2 0.9
      vertex 7.949999998509885 3.1999999985098837 0.9
    endloop
  endfacet
  facet normal 0 0 1
    outer loop
      vertex -6.35 2.8 0.9
      vertex 6.35 -2.8 0.9
      vertex 6.35 2.8 0.9
    endloop
  endfacet
  facet normal 0 1 0
    outer loop
      vertex -5.949999999999999 5.199999998509884 0
      vertex 5.949999998509885 5.199999998509884 0.9
      vertex 5.949999998509885 5.199999998509884 0
    endloop
  endfacet
  facet normal 0 0 1
    outer loop
      vertex -5.949999999999999 5.199999998509884 0.9
      vertex 6.35 3.5999999999999996 0.9
      vertex 5.949999998509885 5.199999998509884 0.9
    endloop
  endfacet
  facet normal 0 0 -1
    outer loop
      vertex 7.932889717817307 -3.4610523849725725 0
      vertex 7.932889717817307 3.461052383482456 0
      vertex 7.949999998509885 3.1999999985098837 0
    endloop
  endfacet
  facet normal 0 0 -1
    outer loop
      vertex 7.881851653754712 -3.717638087272644 0
      vertex 7.881851653754712 3.7176380857825277 0
      vertex 7.932889717817307 3.461052383482456 0
    endloop
  endfacet
  facet normal 0 0 -1
    outer loop
      vertex 7.797759066522122 -3.965366867184639 0
      vertex 7.797759066522122 3.9653668656945227 0
      vertex 7.881851653754712 3.7176380857825277 0
    endloop
  endfacet
  facet normal 1 0 0
    outer loop
      vertex 7.949999998509885 -3.2 0.9
      vertex 7.949999998509885 3.1999999985098837 0
      vertex 7.949999998509885 3.1999999985098837 0.9
    endloop
  endfacet
  facet normal 0 0 1
    outer loop
      vertex 7.932889717817307 -3.4610523849725725 0.9
      vertex 7.949999998509885 3.1999999985098837 0.9
      vertex 7.932889717817307 3.461052383482456 0.9
    endloop
  endfacet
  facet normal 0 0 1
    outer loop
      vertex 7.881851653754712 -3.717638087272644 0.9
      vertex 7.932889717817307 3.461052383482456 0.9
      vertex 7.881851653754712 3.7176380857825277 0.9
    endloop
  endfacet
  facet normal 0 0 1
    outer loop
      vertex 7.797759066522122 -3.965366867184639 0.9
      vertex 7.881851653754712 3.7176380857825277 0.9
      vertex 7.797759066522122 3.9653668656945227 0.9
    endloop
  endfacet
  facet normal 0 0 -1
    outer loop
      vertex 5.949999998509885 -5.2 0
      vertex 5.949999998509885 5.199999998509884 0
      vertex 6.211052383482457 5.182889717817306 0
    endloop
  endfacet
  facet normal 0 0 -1
    outer loop
      vertex 6.211052383482457 -5.182889719307423 0
      vertex 6.211052383482457 5.182889717817306 0
      vertex 6.467638085782529 5.131851653754711 0
    endloop
  endfacet
  facet normal 0 0 -1
    outer loop
      vertex 6.467638085782529 -5.1318516552448274 0
      vertex 6.467638085782529 5.131851653754711 0
      vertex 6.715366865694524 5.047759066522121 0
    endloop
  endfacet
  facet normal 0 0 -1
    outer loop
      vertex 6.949999998509885 -4.932050806283951 0
      vertex 6.949999998509885 4.9320508047938345 0
      vertex 7.167522858083249 4.786706681549549 0
    endloop
  endfacet
  facet normal 0 0 -1
    outer loop
      vertex 7.167522858083249 -4.786706683039665 0
      vertex 7.167522858083249 4.786706681549549 0
      vertex 7.364213559031487 4.614213559031486 0
    endloop
  endfacet
  facet normal 0 0 -1
    outer loop
      vertex 6.715366865694524 -5.047759068012238 0
      vertex 6.715366865694524 5.047759066522121 0
      vertex 6.949999998509885 4.9320508047938345 0
    endloop
  endfacet
  facet normal 0 0 -1
    outer loop
      vertex 7.53670668154955 -4.417522859573364 0
      vertex 7.53670668154955 4.417522858083248 0
      vertex 7.682050804793835 4.199999998509884 0
    endloop
  endfacet
  facet normal 0 0 -1
    outer loop
      vertex 7.364213559031487 -4.614213560521603 0
      vertex 7.364213559031487 4.614213559031486 0
      vertex 7.53670668154955 4.417522858083248 0
    endloop
  endfacet
  facet normal 0 0 -1
    outer loop
      vertex 7.682050804793835 -4.2 0
      vertex 7.682050804793835 4.199999998509884 0
      vertex 7.797759066522122 3.9653668656945227 0
    endloop
  endfacet
  facet normal 0 0 1
    outer loop
      vertex 6.35 -2.8 0.9
      vertex 6.467638085782529 5.131851653754711 0.9
      vertex 6.35 2.8 0.9
    endloop
  endfacet
  facet normal 0 0 1
    outer loop
      vertex 6.467638085782529 -5.1318516552448274 0.9
      vertex 6.715366865694524 5.047759066522121 0.9
      vertex 6.467638085782529 5.131851653754711 0.9
    endloop
  endfacet
  facet normal 0 0 1
    outer loop
      vertex 6.949999998509885 -4.932050806283951 0.9
      vertex 7.167522858083249 4.786706681549549 0.9
      vertex 6.949999998509885 4.9320508047938345 0.9
    endloop
  endfacet
  facet normal 0 0 1
    outer loop
      vertex 7.167522858083249 -4.786706683039665 0.9
      vertex 7.364213559031487 4.614213559031486 0.9
      vertex 7.167522858083249 4.786706681549549 0.9
    endloop
  endfacet
  facet normal 0 0 1
    outer loop
      vertex 6.715366865694524 -5.047759068012238 0.9
      vertex 6.949999998509885 4.9320508047938345 0.9
      vertex 6.715366865694524 5.047759066522121 0.9
    endloop
  endfacet
  facet normal 0 0 1
    outer loop
      vertex 7.53670668154955 -4.417522859573364 0.9
      vertex 7.682050804793835 4.199999998509884 0.9
      vertex 7.53670668154955 4.417522858083248 0.9
    endloop
  endfacet
  facet normal 0 0 1
    outer loop
      vertex 7.364213559031487 -4.614213560521603 0.9
      vertex 7.53670668154955 4.417522858083248 0.9
      vertex 7.364213559031487 4.614213559031486 0.9
    endloop
  endfacet
  facet normal 0 0 1
    outer loop
      vertex 7.682050804793835 -4.2 0.9
      vertex 7.797759066522122 3.9653668656945227 0.9
      vertex 7.682050804793835 4.199999998509884 0.9
    endloop
  endfacet
  facet normal 0.9978589223891017 0.06540314219103631 0
    outer loop
      vertex 7.949999998509885 3.1999999985098837 0
      vertex 7.932889717817307 3.461052383482456 0
      vertex 7.949999998509885 3.1999999985098837 0.9
    endloop
  endfacet
  facet normal 0.9807852843656897 0.1950903020954995 0
    outer loop
      vertex 7.932889717817307 3.461052383482456 0
      vertex 7.881851653754712 3.7176380857825277 0
      vertex 7.932889717817307 3.461052383482456 0.9
    endloop
  endfacet
  facet normal 0.9469301319984065 0.32143945792867507 0
    outer loop
      vertex 7.881851653754712 3.7176380857825277 0
      vertex 7.797759066522122 3.9653668656945227 0
      vertex 7.881851653754712 3.7176380857825277 0.9
    endloop
  endfacet
  facet normal 0 0 1
    outer loop
      vertex 6.35 2.8 0.9
      vertex 6.467638085782529 5.131851653754711 0.9
      vertex 6.35 3.5999999999999996 0.9
    endloop
  endfacet
  facet normal 0.9978589223891017 0.06540314219103631 0
    outer loop
      vertex 7.932889717817307 3.461052383482456 0
      vertex 7.932889717817307 3.461052383482456 0.9
      vertex 7.949999998509885 3.1999999985098837 0.9
    endloop
  endfacet
  facet normal 0.9807852843656897 0.1950903020954995 0
    outer loop
      vertex 7.881851653754712 3.7176380857825277 0
      vertex 7.881851653754712 3.7176380857825277 0.9
      vertex 7.932889717817307 3.461052383482456 0.9
    endloop
  endfacet
  facet normal 0.9469301319984065 0.32143945792867507 0
    outer loop
      vertex 7.881851653754712 3.7176380857825277 0.9
      vertex 7.797759066522122 3.9653668656945227 0
      vertex 7.797759066522122 3.9653668656945227 0.9
    endloop
  endfacet
  facet normal 0.06540314219103631 0.9978589223891017 0
    outer loop
      vertex 5.949999998509885 5.199999998509884 0
      vertex 6.211052383482457 5.182889717817306 0.9
      vertex 6.211052383482457 5.182889717817306 0
    endloop
  endfacet
  facet normal 0.1950903020954995 0.9807852843656897 0
    outer loop
      vertex 6.211052383482457 5.182889717817306 0
      vertex 6.467638085782529 5.131851653754711 0.9
      vertex 6.467638085782529 5.131851653754711 0
    endloop
  endfacet
  facet normal 0.32143945792867507 0.9469301319984065 0
    outer loop
      vertex 6.467638085782529 5.131851653754711 0
      vertex 6.715366865694524 5.047759066522121 0.9
      vertex 6.715366865694524 5.047759066522121 0
    endloop
  endfacet
  facet normal 0.8968727332159228 0.44228870708373313 0
    outer loop
      vertex 7.797759066522122 3.9653668656945227 0
      vertex 7.682050804793835 4.199999998509884 0
      vertex 7.797759066522122 3.9653668656945227 0.9
    endloop
  endfacet
  facet normal 0.8314696207458843 0.5555702203832521 0
    outer loop
      vertex 7.682050804793835 4.199999998509884 0
      vertex 7.53670668154955 4.417522858083248 0
      vertex 7.682050804793835 4.199999998509884 0.9
    endloop
  endfacet
  facet normal 0.7518397936522606 0.6593458308664174 0
    outer loop
      vertex 7.53670668154955 4.417522858083248 0
      vertex 7.364213559031487 4.614213559031486 0
      vertex 7.53670668154955 4.417522858083248 0.9
    endloop
  endfacet
  facet normal 0.6593458308664174 0.7518397936522606 0
    outer loop
      vertex 7.167522858083249 4.786706681549549 0
      vertex 7.364213559031487 4.614213559031486 0.9
      vertex 7.364213559031487 4.614213559031486 0
    endloop
  endfacet
  facet normal 0.5555702203832521 0.8314696207458843 0
    outer loop
      vertex 7.167522858083249 4.786706681549549 0
      vertex 6.949999998509885 4.9320508047938345 0
      vertex 7.167522858083249 4.786706681549549 0.9
    endloop
  endfacet
  facet normal 0.44228870708373313 0.8968727332159228 0
    outer loop
      vertex 6.715366865694524 5.047759066522121 0
      vertex 6.949999998509885 4.9320508047938345 0.9
      vertex 6.949999998509885 4.9320508047938345 0
    endloop
  endfacet
  facet normal 0.06540314219103631 0.9978589223891017 0
    outer loop
      vertex 5.949999998509885 5.199999998509884 0
      vertex 5.949999998509885 5.199999998509884 0.9
      vertex 6.211052383482457 5.182889717817306 0.9
    endloop
  endfacet
  facet normal 0.1950903020954995 0.9807852843656897 0
    outer loop
      vertex 6.211052383482457 5.182889717817306 0
      vertex 6.211052383482457 5.182889717817306 0.9
      vertex 6.467638085782529 5.131851653754711 0.9
    endloop
  endfacet
  facet normal 0.32143945792867507 0.9469301319984065 0
    outer loop
      vertex 6.467638085782529 5.131851653754711 0
      vertex 6.467638085782529 5.131851653754711 0.9
      vertex 6.715366865694524 5.047759066522121 0.9
    endloop
  endfacet
  facet normal 0 0 1
    outer loop
      vertex 6.35 3.5999999999999996 0.9
      vertex 6.211052383482457 5.182889717817306 0.9
      vertex 5.949999998509885 5.199999998509884 0.9
    endloop
  endfacet
  facet normal 0 0 1
    outer loop
      vertex 6.35 3.5999999999999996 0.9
      vertex 6.467638085782529 5.131851653754711 0.9
      vertex 6.211052383482457 5.182889717817306 0.9
    endloop
  endfacet
  facet normal 0.8968727332159228 0.44228870708373313 0
    outer loop
      vertex 7.682050804793835 4.199999998509884 0
      vertex 7.682050804793835 4.199999998509884 0.9
      vertex 7.797759066522122 3.9653668656945227 0.9
    endloop
  endfacet
  facet normal 0.8314696207458843 0.5555702203832521 0
    outer loop
      vertex 7.53670668154955 4.417522858083248 0
      vertex 7.53670668154955 4.417522858083248 0.9
      vertex 7.682050804793835 4.199999998509884 0.9
    endloop
  endfacet
  facet normal 0.7518397936522606 0.6593458308664174 0
    outer loop
      vertex 7.364213559031487 4.614213559031486 0
      vertex 7.364213559031487 4.614213559031486 0.9
      vertex 7.53670668154955 4.417522858083248 0.9
    endloop
  endfacet
  facet normal 0.6593458308664174 0.7518397936522606 0
    outer loop
      vertex 7.167522858083249 4.786706681549549 0
      vertex 7.167522858083249 4.786706681549549 0.9
      vertex 7.364213559031487 4.614213559031486 0.9
    endloop
  endfacet
  facet normal 0.44228870708373313 0.8968727332159228 0
    outer loop
      vertex 6.715366865694524 5.047759066522121 0
      vertex 6.715366865694524 5.047759066522121 0.9
      vertex 6.949999998509885 4.9320508047938345 0.9
    endloop
  endfacet
  facet normal 0.5555702203832521 0.8314696207458843 0
    outer loop
      vertex 6.949999998509885 4.9320508047938345 0
      vertex 6.949999998509885 4.9320508047938345 0.9
      vertex 7.167522858083249 4.786706681549549 0.9
    endloop
  endfacet
  facet normal 4.1503664471968473e-17 -1.1348946473946042e-13 -1
    outer loop
      vertex -5.35 3.5999999999999996 3.150000000000051
      vertex -5.35 4.05 3.15
      vertex 5.35 3.5999999999999996 3.1500000000000514
    endloop
  endfacet
  facet normal 0 1 0
    outer loop
      vertex -5.35 4.05 3.15
      vertex -5.35 4.05 3.1599999999999997
      vertex 5.35 4.05 3.1599999999999997
    endloop
  endfacet
  facet normal -1 0 0
    outer loop
      vertex -5.35 4.05 3.15
      vertex -5.35 3.5999999999999996 3.150000000000051
      vertex -5.35 3.5999999999999996 3.9
    endloop
  endfacet
  facet normal -1 0 0
    outer loop
      vertex -5.35 4.05 3.15
      vertex -5.35 3.5999999999999996 3.9
      vertex -5.35 3.5900000000000003 4.31
    endloop
  endfacet
  facet normal -1 0 0
    outer loop
      vertex -5.35 3.5900000000000003 4.3
      vertex -5.35 3.5999999999999996 3.9
      vertex -5.35 3.5934210526315793 3.9065789473684203
    endloop
  endfacet
  facet normal -1 0 0
    outer loop
      vertex -5.35 4.05 3.15
      vertex -5.35 3.5900000000000003 4.31
      vertex -5.35 3.6 4.31
    endloop
  endfacet
  facet normal -1 0 0
    outer loop
      vertex -5.35 3.5900000000000003 4.3
      vertex -5.35 3.5900000000000003 4.31
      vertex -5.35 3.5999999999999996 3.9
    endloop
  endfacet
  facet normal -1 0 0
    outer loop
      vertex -5.35 4.05 3.15
      vertex -5.35 3.6 4.31
      vertex -5.35 4.05 3.1599999999999997
    endloop
  endfacet
  facet normal 0 -0.9999621949605747 -0.008695323434439878
    outer loop
      vertex -5.35 3.5900000000000003 4.3
      vertex -5.35 3.5934210526315793 3.9065789473684203
      vertex 5.35 3.5900000000000003 4.3
    endloop
  endfacet
  facet normal 0 -1 0
    outer loop
      vertex -5.35 3.5900000000000003 4.3
      vertex 5.35 3.5900000000000003 4.31
      vertex -5.35 3.5900000000000003 4.31
    endloop
  endfacet
  facet normal 0 0 1
    outer loop
      vertex -5.35 3.5900000000000003 4.31
      vertex 5.35 3.5900000000000003 4.31
      vertex -5.35 3.6 4.31
    endloop
  endfacet
  facet normal 0 0.9312427797057534 0.36439934858051204
    outer loop
      vertex -5.35 4.05 3.1599999999999997
      vertex -5.35 3.6 4.31
      vertex 5.35 4.05 3.1599999999999997
    endloop
  endfacet
  facet normal 0 -1.144763296502383e-13 -1
    outer loop
      vertex -5.35 4.05 3.15
      vertex 5.35 4.05 3.15
      vertex 5.35 3.5999999999999996 3.1500000000000514
    endloop
  endfacet
  facet normal 0 1 0
    outer loop
      vertex -5.35 4.05 3.15
      vertex 5.35 4.05 3.1599999999999997
      vertex 5.35 4.05 3.15
    endloop
  endfacet
  facet normal -1.9425570430242106e-20 -0.9999621949605747 -0.008695323434439878
    outer loop
      vertex 5.35 3.5900000000000003 4.3
      vertex -5.35 3.5934210526315793 3.9065789473684203
      vertex 5.35 3.5934210526315793 3.9065789473684203
    endloop
  endfacet
  facet normal 0 0.9312427797057534 0.36439934858051204
    outer loop
      vertex -5.35 3.6 4.31
      vertex 5.35 3.6 4.31
      vertex 5.35 4.05 3.1599999999999997
    endloop
  endfacet
  facet normal 0 -1 0
    outer loop
      vertex -5.35 3.5900000000000003 4.3
      vertex 5.35 3.5900000000000003 4.3
      vertex 5.35 3.5900000000000003 4.31
    endloop
  endfacet
  facet normal 0 0 1
    outer loop
      vertex -5.35 3.6 4.31
      vertex 5.35 3.5900000000000003 4.31
      vertex 5.35 3.6 4.31
    endloop
  endfacet
  facet normal 1 0 0
    outer loop
      vertex 5.35 3.5999999999999996 3.1500000000000514
      vertex 5.35 4.05 3.15
      vertex 5.35 4.05 3.1599999999999997
    endloop
  endfacet
  facet normal 1 0 0
    outer loop
      vertex 5.35 4.05 3.1599999999999997
      vertex 5.35 3.5999999999999996 3.9
      vertex 5.35 3.5999999999999996 3.1500000000000514
    endloop
  endfacet
  facet normal 1 0 0
    outer loop
      vertex 5.35 4.05 3.1599999999999997
      vertex 5.35 3.5900000000000003 4.31
      vertex 5.35 3.5999999999999996 3.9
    endloop
  endfacet
  facet normal 1 0 0
    outer loop
      vertex 5.35 3.5900000000000003 4.31
      vertex 5.35 3.5934210526315793 3.9065789473684203
      vertex 5.35 3.5999999999999996 3.9
    endloop
  endfacet
  facet normal 1 0 0
    outer loop
      vertex 5.35 4.05 3.1599999999999997
      vertex 5.35 3.6 4.31
      vertex 5.35 3.5900000000000003 4.31
    endloop
  endfacet
  facet normal 1 0 0
    outer loop
      vertex 5.35 3.5900000000000003 4.3
      vertex 5.35 3.5934210526315793 3.9065789473684203
      vertex 5.35 3.5900000000000003 4.31
    endloop
  endfacet
  facet normal 0 -1 0
    outer loop
      vertex -5.35 -4.05 3.15
      vertex 5.35 -4.05 3.1599999999999997
      vertex -5.35 -4.05 3.1599999999999997
    endloop
  endfacet
  facet normal 0 0 -1
    outer loop
      vertex -5.35 -4.05 3.15
      vertex -5.35 -3.6 3.15
      vertex 5.35 -3.6 3.15
    endloop
  endfacet
  facet normal -1 0 0
    outer loop
      vertex -5.35 -4.05 3.15
      vertex -5.35 -3.5999999999999996 3.9
      vertex -5.35 -3.6 3.15
    endloop
  endfacet
  facet normal -1 0 0
    outer loop
      vertex -5.35 -4.05 3.15
      vertex -5.35 -4.05 3.1599999999999997
      vertex -5.35 -3.6 4.31
    endloop
  endfacet
  facet normal -1 0 0
    outer loop
      vertex -5.35 -4.05 3.15
      vertex -5.35 -3.5900000000000003 4.31
      vertex -5.35 -3.5999999999999996 3.9
    endloop
  endfacet
  facet normal -1 0 0
    outer loop
      vertex -5.35 -4.05 3.15
      vertex -5.35 -3.6 4.31
      vertex -5.35 -3.5900000000000003 4.31
    endloop
  endfacet
  facet normal -1 0 0
    outer loop
      vertex -5.35 -3.5900000000000003 4.31
      vertex -5.35 -3.5934210526315793 3.9065789473684203
      vertex -5.35 -3.5999999999999996 3.9
    endloop
  endfacet
  facet normal -1 0 0
    outer loop
      vertex -5.35 -3.5900000000000003 4.3
      vertex -5.35 -3.5934210526315793 3.9065789473684203
      vertex -5.35 -3.5900000000000003 4.31
    endloop
  endfacet
  facet normal 0 -0.9312427797057534 0.36439934858051204
    outer loop
      vertex -5.35 -4.05 3.1599999999999997
      vertex 5.35 -4.05 3.1599999999999997
      vertex -5.35 -3.6 4.31
    endloop
  endfacet
  facet normal 1.9425570430242106e-20 0.9999621949605747 -0.008695323434439878
    outer loop
      vertex -5.35 -3.5900000000000003 4.3
      vertex 5.35 -3.5934210526315793 3.9065789473684203
      vertex -5.35 -3.5934210526315793 3.9065789473684203
    endloop
  endfacet
  facet normal 0 0 1
    outer loop
      vertex -5.35 -3.6 4.31
      vertex 5.35 -3.5900000000000003 4.31
      vertex -5.35 -3.5900000000000003 4.31
    endloop
  endfacet
  facet normal 0 1 0
    outer loop
      vertex -5.35 -3.5900000000000003 4.3
      vertex -5.35 -3.5900000000000003 4.31
      vertex 5.35 -3.5900000000000003 4.31
    endloop
  endfacet
  facet normal 0 -1 0
    outer loop
      vertex -5.35 -4.05 3.15
      vertex 5.35 -4.05 3.15
      vertex 5.35 -4.05 3.1599999999999997
    endloop
  endfacet
  facet normal 0 0 -1
    outer loop
      vertex -5.35 -4.05 3.15
      vertex 5.35 -3.6 3.15
      vertex 5.35 -4.05 3.15
    endloop
  endfacet
  facet normal 0 -0.9312427797057534 0.36439934858051204
    outer loop
      vertex -5.35 -3.6 4.31
      vertex 5.35 -4.05 3.1599999999999997
      vertex 5.35 -3.6 4.31
    endloop
  endfacet
  facet normal 0 0.9999621949605747 -0.008695323434439878
    outer loop
      vertex -5.35 -3.5900000000000003 4.3
      vertex 5.35 -3.5900000000000003 4.3
      vertex 5.35 -3.5934210526315793 3.9065789473684203
    endloop
  endfacet
  facet normal 0 0 1
    outer loop
      vertex -5.35 -3.6 4.31
      vertex 5.35 -3.6 4.31
      vertex 5.35 -3.5900000000000003 4.31
    endloop
  endfacet
  facet normal 0 1 0
    outer loop
      vertex -5.35 -3.5900000000000003 4.3
      vertex 5.35 -3.5900000000000003 4.31
      vertex 5.35 -3.5900000000000003 4.3
    endloop
  endfacet
  facet normal 1 0 0
    outer loop
      vertex 5.35 -4.05 3.15
      vertex 5.35 -3.6 3.15
      vertex 5.35 -4.05 3.1599999999999997
    endloop
  endfacet
  facet normal 1 0 0
    outer loop
      vertex 5.35 -4.05 3.1599999999999997
      vertex 5.35 -3.6 3.15
      vertex 5.35 -3.5999999999999996 3.9
    endloop
  endfacet
  facet normal 1 0 0
    outer loop
      vertex 5.35 -4.05 3.1599999999999997
      vertex 5.35 -3.5999999999999996 3.9
      vertex 5.35 -3.5900000000000003 4.31
    endloop
  endfacet
  facet normal 1 0 0
    outer loop
      vertex 5.35 -4.05 3.1599999999999997
      vertex 5.35 -3.5900000000000003 4.31
      vertex 5.35 -3.6 4.31
    endloop
  endfacet
  facet normal 1 0 0
    outer loop
      vertex 5.35 -3.5900000000000003 4.3
      vertex 5.35 -3.5999999999999996 3.9
      vertex 5.35 -3.5934210526315793 3.9065789473684203
    endloop
  endfacet
  facet normal 1 0 0
    outer loop
      vertex 5.35 -3.5900000000000003 4.3
      vertex 5.35 -3.5900000000000003 4.31
      vertex 5.35 -3.5999999999999996 3.9
    endloop
  endfacet
endsolid OpenSCAD_Model
